<svg xmlns="http://www.w3.org/2000/svg" viewBox="0 0 64 64" width="64" height="64">
  <!-- The Beagle mark in its app-badge tile (matches the dashboard header). -->
  <defs>
    <linearGradient id="tile" x1="0" y1="0" x2="0.55" y2="1">
      <stop offset="0" stop-color="#2b3550"/>
      <stop offset="0.55" stop-color="#1c2231"/>
      <stop offset="1" stop-color="#171c28"/>
    </linearGradient>
  </defs>
  <rect x="0.5" y="0.5" width="63" height="63" rx="15.5" fill="url(#tile)" stroke="#6ea8fe" stroke-opacity="0.32"/>
  <path d="M13 59 C13 50 20.5 44.5 32 44.5 C43.5 44.5 51 50 51 59 Z" fill="#46311f"/>
  <path d="M23 59 C23 49.5 27 46 32 46 C37 46 41 49.5 41 59 Z" fill="#e2d2ba"/>
  <path d="M24 20 C15 16 8.8 23 8.8 32 C8.8 42 11.5 51 17.5 54 C21.5 55.8 24.6 52.5 24.8 46 C25 38 24.6 27 24 20 Z" fill="#7a4a28"/>
  <path d="M40 20 C49 16 55.2 23 55.2 32 C55.2 42 52.5 51 46.5 54 C42.5 55.8 39.4 52.5 39.2 46 C39 38 39.4 27 40 20 Z" fill="#7a4a28"/>
  <ellipse cx="32" cy="29.5" rx="16.5" ry="17.5" fill="#c98f4e"/>
  <path d="M28.7 12.7 C27.9 17 27.3 26 27.2 35 L36.8 35 C36.7 26 36.1 17 35.3 12.7 C33.1 12 30.9 12 28.7 12.7 Z" fill="#f2e8d8"/>
  <ellipse cx="32" cy="41" rx="10.5" ry="8.5" fill="#f2e8d8"/>
  <circle cx="24.5" cy="29.5" r="2.8" fill="#26201a"/>
  <circle cx="39.5" cy="29.5" r="2.8" fill="#26201a"/>
  <circle cx="23.6" cy="28.6" r="0.95" fill="#f2e8d8"/>
  <circle cx="38.6" cy="28.6" r="0.95" fill="#f2e8d8"/>
  <path d="M27.9 37.5 C27.9 35.9 29.6 35.2 32 35.2 C34.4 35.2 36.1 35.9 36.1 37.5 C36.1 39.6 34 41.2 32 41.2 C30 41.2 27.9 39.6 27.9 37.5 Z" fill="#26201a"/>
  <ellipse cx="30.6" cy="36.7" rx="1.1" ry="0.7" fill="#f2e8d8" fill-opacity="0.35"/>
  <path d="M32 41.2 L32 43.4 M32 43.4 C30.8 45.4 28.8 45.4 27.6 44 M32 43.4 C33.2 45.4 35.2 45.4 36.4 44" stroke="#26201a" stroke-width="1.4" stroke-linecap="round" fill="none"/>
</svg>
